<svg width="251" height="274" viewBox="0 0 251 274" fill="none" xmlns="http://www.w3.org/2000/svg">
<path d="M125.5 22.6841L234.186 85.5131V211.171L125.5 274L16.8138 211.171V85.5131L125.5 22.6841Z" fill="#009ED8"/>
<path d="M75.0674 180.883V68.9699C86.7625 54.4111 97.4585 62.9037 101.345 68.9699V121.056L222.153 0.566344C238.699 -2.82243 241.269 9.82268 240.486 16.5688L75.0674 180.883Z" fill="#0ACF83"/>
<path d="M75.0674 238.386V202.953L104.193 175.358L121.418 191.978L75.0674 238.386Z" fill="white"/>
<path d="M190.647 236.405L116.094 161.875L186.559 90.6938C206.602 88.4361 206.602 101.878 204.097 108.881L151.292 161.875L213.258 223.322L190.647 236.405Z" fill="white"/>
</svg>
